<svg xmlns="http://www.w3.org/2000/svg" viewBox="0 0 512 512" role="img" aria-label="Van Beijsterveld barcode logo">
  <defs>
    <linearGradient id="frameGradient" x1="82" y1="82" x2="430" y2="430" gradientUnits="userSpaceOnUse">
      <stop offset="0" stop-color="#E84D8A"/>
      <stop offset="0.56" stop-color="#FF8300"/>
      <stop offset="1" stop-color="#FFB72F"/>
    </linearGradient>

    <path id="bShape" d="
      M136 116
      H248
      C322 116 364 151 364 207
      C364 244 344 271 309 285
      C354 297 376 329 376 373
      C376 440 329 476 246 476
      H136
      Z

      M212 180
      V258
      H247
      C279 258 296 244 296 219
      C296 194 279 180 247 180
      Z

      M212 320
      V410
      H253
      C289 410 308 394 308 365
      C308 336 289 320 253 320
      Z
    "/>

    <clipPath id="bClip">
      <use href="#bShape" fill-rule="evenodd"/>
    </clipPath>

    <clipPath id="solidTop">
      <rect x="120" y="100" width="272" height="274"/>
    </clipPath>
  </defs>

  <rect width="512" height="512" rx="108" fill="#FFF7EF"/>

  <g fill="none" stroke="url(#frameGradient)" stroke-width="24" stroke-linecap="round">
    <path d="M88 174V120a32 32 0 0 1 32-32h54"/>
    <path d="M338 88h54a32 32 0 0 1 32 32v54"/>
    <path d="M424 338v54a32 32 0 0 1-32 32h-54"/>
    <path d="M174 424h-54a32 32 0 0 1-32-32v-54"/>
  </g>

  <use href="#bShape" fill="#202020" fill-rule="evenodd" clip-path="url(#solidTop)"/>

  <g clip-path="url(#bClip)" fill="#202020">
    <rect x="142" y="348" width="8" height="82"/>
    <rect x="155" y="354" width="4" height="76"/>
    <rect x="165" y="346" width="11" height="84"/>
    <rect x="182" y="352" width="6" height="78"/>
    <rect x="194" y="344" width="14" height="86"/>
    <rect x="214" y="350" width="5" height="80"/>
    <rect x="225" y="345" width="9" height="85"/>
    <rect x="240" y="353" width="4" height="77"/>
    <rect x="250" y="344" width="15" height="86"/>
    <rect x="271" y="349" width="6" height="81"/>
    <rect x="283" y="346" width="11" height="84"/>
    <rect x="300" y="354" width="5" height="76"/>
    <rect x="311" y="345" width="13" height="85"/>
    <rect x="330" y="351" width="7" height="79"/>
    <rect x="343" y="347" width="10" height="83"/>
    <rect x="359" y="355" width="5" height="75"/>
    <rect x="370" y="349" width="8" height="81"/>
  </g>
</svg>